<svg xmlns="http://www.w3.org/2000/svg" viewBox="0 0 720 420" font-family="Georgia, serif">
<rect width="100%" height="100%" fill="#f4efe4"/>
<text x="24" y="28" font-size="16">Eleven flags, about four dimensions</text>
<text x="24" y="48" font-size="11" fill="#5b6773">Eigenvalues of the correlation matrix of the non-degenerate first-wave HM/CM binaries. Participation ratio = effective rank. Exposure only.</text>
<line x1="56" y1="64" x2="56" y2="364" stroke="#12181f"/>
<line x1="56" y1="364" x2="692" y2="364" stroke="#12181f"/>
<rect x="64.0" y="90.3" width="41.8" height="273.7" fill="#0c6b74" fill-opacity="0.88"/>
<text x="84.9" y="380.0" text-anchor="middle" font-size="11">1</text>
<rect x="121.8" y="194.0" width="41.8" height="170.0" fill="#0c6b74" fill-opacity="0.88"/>
<text x="142.7" y="380.0" text-anchor="middle" font-size="11">2</text>
<rect x="179.6" y="311.9" width="41.8" height="52.1" fill="#5b6773" fill-opacity="0.88"/>
<text x="200.5" y="380.0" text-anchor="middle" font-size="11">3</text>
<rect x="237.5" y="319.6" width="41.8" height="44.4" fill="#5b6773" fill-opacity="0.88"/>
<text x="258.4" y="380.0" text-anchor="middle" font-size="11">4</text>
<rect x="295.3" y="335.3" width="41.8" height="28.7" fill="#5b6773" fill-opacity="0.88"/>
<text x="316.2" y="380.0" text-anchor="middle" font-size="11">5</text>
<rect x="353.1" y="336.2" width="41.8" height="27.8" fill="#5b6773" fill-opacity="0.88"/>
<text x="374.0" y="380.0" text-anchor="middle" font-size="11">6</text>
<rect x="410.9" y="343.0" width="41.8" height="21.0" fill="#5b6773" fill-opacity="0.88"/>
<text x="431.8" y="380.0" text-anchor="middle" font-size="11">7</text>
<rect x="468.7" y="349.9" width="41.8" height="14.1" fill="#5b6773" fill-opacity="0.88"/>
<text x="489.6" y="380.0" text-anchor="middle" font-size="11">8</text>
<rect x="526.5" y="350.1" width="41.8" height="13.9" fill="#5b6773" fill-opacity="0.88"/>
<text x="547.5" y="380.0" text-anchor="middle" font-size="11">9</text>
<rect x="584.4" y="355.0" width="41.8" height="9.0" fill="#5b6773" fill-opacity="0.88"/>
<text x="605.3" y="380.0" text-anchor="middle" font-size="11">10</text>
<rect x="642.2" y="358.6" width="41.8" height="5.4" fill="#5b6773" fill-opacity="0.88"/>
<text x="663.1" y="380.0" text-anchor="middle" font-size="11">11</text>
<line x1="52" y1="364.0" x2="56" y2="364.0" stroke="#12181f"/>
<text x="48" y="368.0" text-anchor="end" font-size="11" fill="#5b6773">0</text>
<line x1="52" y1="304.0" x2="56" y2="304.0" stroke="#12181f"/>
<text x="48" y="308.0" text-anchor="end" font-size="11" fill="#5b6773">1</text>
<line x1="52" y1="244.0" x2="56" y2="244.0" stroke="#12181f"/>
<text x="48" y="248.0" text-anchor="end" font-size="11" fill="#5b6773">2</text>
<line x1="52" y1="184.0" x2="56" y2="184.0" stroke="#12181f"/>
<text x="48" y="188.0" text-anchor="end" font-size="11" fill="#5b6773">3</text>
<line x1="52" y1="124.0" x2="56" y2="124.0" stroke="#12181f"/>
<text x="48" y="128.0" text-anchor="end" font-size="11" fill="#5b6773">4</text>
<line x1="52" y1="64.0" x2="56" y2="64.0" stroke="#12181f"/>
<text x="48" y="68.0" text-anchor="end" font-size="11" fill="#5b6773">5</text>
<text x="56" y="402" font-size="11" fill="#5b6773">Effective rank 3.92. PC1+PC2 hold 67% of the 11-flag correlation. Heat never co-fires with cold. CM05 is a zero column, not a test. Not a health finding.</text>
</svg>
