<svg xmlns="http://www.w3.org/2000/svg" viewBox="0 0 880 620" font-family="Georgia, serif">
<rect width="100%" height="100%" fill="#f4efe4"/>
<text x="24" y="28" font-size="17">What the identifying residual is</text>
<text x="24" y="48" font-size="11" fill="#5b6773">Within-calendar-month sum of squares, 132 months, HKO Headquarters. Teal = how many events. Amber = whether the month had any. Exposure only.</text>
<text x="64" y="80" font-size="13">A. Official hot nights ≥ 28°C</text>
<rect x="72.0" y="302.0" width="49.0" height="4" fill="#d7d1c4"/>
<text x="96.5" y="326.0" text-anchor="middle" font-size="11">Jan</text>
<text x="96.5" y="340.0" text-anchor="middle" font-size="9" fill="#5b6773">0/11</text>
<rect x="137.0" y="302.0" width="49.0" height="4" fill="#d7d1c4"/>
<text x="161.5" y="326.0" text-anchor="middle" font-size="11">Feb</text>
<text x="161.5" y="340.0" text-anchor="middle" font-size="9" fill="#5b6773">0/11</text>
<rect x="202.0" y="302.0" width="49.0" height="4" fill="#d7d1c4"/>
<text x="226.5" y="326.0" text-anchor="middle" font-size="11">Mar</text>
<text x="226.5" y="340.0" text-anchor="middle" font-size="9" fill="#5b6773">0/11</text>
<rect x="267.0" y="302.0" width="49.0" height="4" fill="#d7d1c4"/>
<text x="291.5" y="326.0" text-anchor="middle" font-size="11">Apr</text>
<text x="291.5" y="340.0" text-anchor="middle" font-size="9" fill="#5b6773">0/11</text>
<rect x="332.0" y="257.9" width="49.0" height="52.1" fill="#0c6b74" fill-opacity="0.88"/>
<rect x="332.0" y="247.0" width="49.0" height="10.8" fill="#c9a227" fill-opacity="0.92"/>
<text x="356.5" y="326.0" text-anchor="middle" font-size="11">May</text>
<text x="356.5" y="340.0" text-anchor="middle" font-size="9" fill="#5b6773">9/11</text>
<rect x="397.0" y="251.7" width="49.0" height="58.3" fill="#0c6b74" fill-opacity="0.88"/>
<text x="421.5" y="326.0" text-anchor="middle" font-size="11">Jun</text>
<text x="421.5" y="340.0" text-anchor="middle" font-size="9" fill="#5b6773">11/11</text>
<rect x="462.0" y="118.3" width="49.0" height="191.7" fill="#0c6b74" fill-opacity="0.88"/>
<text x="486.5" y="326.0" text-anchor="middle" font-size="11">Jul</text>
<text x="486.5" y="340.0" text-anchor="middle" font-size="9" fill="#5b6773">11/11</text>
<rect x="527.0" y="243.8" width="49.0" height="66.2" fill="#0c6b74" fill-opacity="0.88"/>
<text x="551.5" y="326.0" text-anchor="middle" font-size="11">Aug</text>
<text x="551.5" y="340.0" text-anchor="middle" font-size="9" fill="#5b6773">11/11</text>
<rect x="592.0" y="268.6" width="49.0" height="41.4" fill="#0c6b74" fill-opacity="0.88"/>
<text x="616.5" y="326.0" text-anchor="middle" font-size="11">Sep</text>
<text x="616.5" y="340.0" text-anchor="middle" font-size="9" fill="#5b6773">11/11</text>
<rect x="657.0" y="307.6" width="49.0" height="2.4" fill="#0c6b74" fill-opacity="0.88"/>
<rect x="657.0" y="298.7" width="49.0" height="9.0" fill="#c9a227" fill-opacity="0.92"/>
<text x="681.5" y="326.0" text-anchor="middle" font-size="11">Oct</text>
<text x="681.5" y="340.0" text-anchor="middle" font-size="9" fill="#5b6773">4/11</text>
<rect x="722.0" y="302.0" width="49.0" height="4" fill="#d7d1c4"/>
<text x="746.5" y="326.0" text-anchor="middle" font-size="11">Nov</text>
<text x="746.5" y="340.0" text-anchor="middle" font-size="9" fill="#5b6773">0/11</text>
<rect x="787.0" y="302.0" width="49.0" height="4" fill="#d7d1c4"/>
<text x="811.5" y="326.0" text-anchor="middle" font-size="11">Dec</text>
<text x="811.5" y="340.0" text-anchor="middle" font-size="9" fill="#5b6773">0/11</text>
<line x1="64" y1="310" x2="844" y2="310" stroke="#12181f"/>
<text x="64" y="356" font-size="13">B. Official cold days ≤ 12°C</text>
<rect x="72.0" y="506.4" width="49.0" height="79.6" fill="#0c6b74" fill-opacity="0.88"/>
<rect x="72.0" y="446.4" width="49.0" height="60.1" fill="#c9a227" fill-opacity="0.92"/>
<text x="96.5" y="602.0" text-anchor="middle" font-size="11">Jan</text>
<text x="96.5" y="616.0" text-anchor="middle" font-size="9" fill="#5b6773">9/11</text>
<rect x="137.0" y="487.2" width="49.0" height="98.8" fill="#0c6b74" fill-opacity="0.88"/>
<rect x="137.0" y="410.4" width="49.0" height="76.8" fill="#c9a227" fill-opacity="0.92"/>
<text x="161.5" y="602.0" text-anchor="middle" font-size="11">Feb</text>
<text x="161.5" y="616.0" text-anchor="middle" font-size="9" fill="#5b6773">8/11</text>
<rect x="202.0" y="584.0" width="49.0" height="2.0" fill="#0c6b74" fill-opacity="0.88"/>
<rect x="202.0" y="577.3" width="49.0" height="6.7" fill="#c9a227" fill-opacity="0.92"/>
<text x="226.5" y="602.0" text-anchor="middle" font-size="11">Mar</text>
<text x="226.5" y="616.0" text-anchor="middle" font-size="9" fill="#5b6773">2/11</text>
<rect x="267.0" y="578.0" width="49.0" height="4" fill="#d7d1c4"/>
<text x="291.5" y="602.0" text-anchor="middle" font-size="11">Apr</text>
<text x="291.5" y="616.0" text-anchor="middle" font-size="9" fill="#5b6773">0/11</text>
<rect x="332.0" y="578.0" width="49.0" height="4" fill="#d7d1c4"/>
<text x="356.5" y="602.0" text-anchor="middle" font-size="11">May</text>
<text x="356.5" y="616.0" text-anchor="middle" font-size="9" fill="#5b6773">0/11</text>
<rect x="397.0" y="578.0" width="49.0" height="4" fill="#d7d1c4"/>
<text x="421.5" y="602.0" text-anchor="middle" font-size="11">Jun</text>
<text x="421.5" y="616.0" text-anchor="middle" font-size="9" fill="#5b6773">0/11</text>
<rect x="462.0" y="578.0" width="49.0" height="4" fill="#d7d1c4"/>
<text x="486.5" y="602.0" text-anchor="middle" font-size="11">Jul</text>
<text x="486.5" y="616.0" text-anchor="middle" font-size="9" fill="#5b6773">0/11</text>
<rect x="527.0" y="578.0" width="49.0" height="4" fill="#d7d1c4"/>
<text x="551.5" y="602.0" text-anchor="middle" font-size="11">Aug</text>
<text x="551.5" y="616.0" text-anchor="middle" font-size="9" fill="#5b6773">0/11</text>
<rect x="592.0" y="578.0" width="49.0" height="4" fill="#d7d1c4"/>
<text x="616.5" y="602.0" text-anchor="middle" font-size="11">Sep</text>
<text x="616.5" y="616.0" text-anchor="middle" font-size="9" fill="#5b6773">0/11</text>
<rect x="657.0" y="578.0" width="49.0" height="4" fill="#d7d1c4"/>
<text x="681.5" y="602.0" text-anchor="middle" font-size="11">Oct</text>
<text x="681.5" y="616.0" text-anchor="middle" font-size="9" fill="#5b6773">0/11</text>
<rect x="722.0" y="578.0" width="49.0" height="4" fill="#d7d1c4"/>
<text x="746.5" y="602.0" text-anchor="middle" font-size="11">Nov</text>
<text x="746.5" y="616.0" text-anchor="middle" font-size="9" fill="#5b6773">0/11</text>
<rect x="787.0" y="516.6" width="49.0" height="69.4" fill="#0c6b74" fill-opacity="0.88"/>
<rect x="787.0" y="501.8" width="49.0" height="14.8" fill="#c9a227" fill-opacity="0.92"/>
<text x="811.5" y="602.0" text-anchor="middle" font-size="11">Dec</text>
<text x="811.5" y="616.0" text-anchor="middle" font-size="9" fill="#5b6773">10/11</text>
<line x1="64" y1="586" x2="844" y2="586" stroke="#12181f"/>
<rect x="64" y="568" width="14" height="10" fill="#0c6b74"/><text x="84" y="577" font-size="11">intensive (count when the month already has events)</text>
<rect x="404" y="568" width="14" height="10" fill="#c9a227"/><text x="424" y="577" font-size="11">extensive (years with zero events)</text>
<text x="24" y="608" font-size="11" fill="#5b6773">June–September always had ≥1 hot night (11/11 years). July 2013 had 1 night; July 2022 had 25. No winter month always had a cold day. Not a health finding.</text>
</svg>
